
            <svg data-logo="logo" xmlns="http://www.w3.org/2000/svg" viewBox="0 0 44 40">
                <g id="logogram" transform="translate(0, 0)"><path fill-rule="evenodd" clip-rule="evenodd" d="M23.5342 4.3629C24.926 2.97124 27.1824 2.97124 28.5742 4.3629C29.966 5.75467 29.966 8.01113 28.5742 9.4029L20.0891 17.888C17.653 14.6231 17.9176 9.97964 20.8831 7.01419L23.5342 4.3629Z" fill="#4F9E91"/><path fill-rule="evenodd" clip-rule="evenodd" d="M35.6642 23.5067C37.0562 24.8983 37.0562 27.1549 35.6642 28.5465C34.2732 29.9383 32.0164 29.9383 30.6246 28.5465L22.1396 20.0616C25.4045 17.6254 30.0479 17.89 33.0134 20.8554L35.6642 23.5067Z" fill="#EBE1C5"/><path fill-rule="evenodd" clip-rule="evenodd" d="M16.5207 35.6369C15.129 37.0287 12.8725 37.0287 11.4808 35.6369C10.0891 34.2452 10.0891 31.9887 11.4808 30.597L19.9658 22.112C22.402 25.3769 22.1374 30.0203 19.172 32.9857L16.5207 35.6369Z" fill="#EBCC6E"/><path fill-rule="evenodd" clip-rule="evenodd" d="M4.39057 16.4932C2.9988 15.1015 2.9988 12.845 4.39057 11.4533C5.78233 10.0615 8.03876 10.0615 9.43053 11.4533L17.9156 19.9383C14.6507 22.3745 10.0072 22.1098 7.04183 19.1445L4.39057 16.4932Z" fill="#ED834E"/><path fill-rule="evenodd" clip-rule="evenodd" d="M21.6381 34.5978C23.6903 32.3161 24.6441 29.3965 24.4994 26.5219L28.5744 30.5969C28.5845 30.607 28.5948 30.6172 28.605 30.6273V33.5366C28.605 35.5048 27.0094 37.1003 25.0412 37.1003C23.4426 37.1003 22.0898 36.0477 21.6381 34.5978Z" fill="#ED834E"/><path fill-rule="evenodd" clip-rule="evenodd" d="M5.42963 21.6104C7.71123 23.6627 10.6308 24.6165 13.5054 24.4718L9.43053 28.5468C9.4203 28.5569 9.41017 28.5672 9.40014 28.5773H6.49085C4.52264 28.5774 2.92709 26.9817 2.92709 25.0135C2.92709 23.415 3.97969 22.0621 5.42963 21.6104Z" fill="#4F9E91"/><path fill-rule="evenodd" clip-rule="evenodd" d="M34.6252 18.3896C32.3438 16.3374 29.4242 15.3836 26.5496 15.5282L30.6245 11.4533C30.6347 11.4432 30.6448 11.4329 30.6549 11.4227H33.5643C35.5328 11.4227 37.1283 13.0183 37.1283 14.9865C37.1283 16.5852 36.0753 17.938 34.6252 18.3896Z" fill="#EBCC6E"/><path fill-rule="evenodd" clip-rule="evenodd" d="M18.417 5.40207C16.3648 7.68369 15.4111 10.6033 15.5557 13.478L11.4808 9.40299C11.4705 9.39286 11.4604 9.38274 11.4502 9.37261V6.46329C11.4502 4.49508 13.0457 2.89944 15.0139 2.89944C16.6126 2.89944 17.9653 3.95214 18.417 5.40207Z" fill="#EBE1C5"/><path fill-rule="evenodd" clip-rule="evenodd" d="M15.0141 0C11.4446 0 8.55081 2.89375 8.55081 6.46332V7.7204C6.40328 7.1593 4.0233 7.72009 2.3404 9.40299C-0.183694 11.9271 -0.183694 16.0194 2.3404 18.5435L3.22924 19.4324C1.31398 20.5542 0.02771 22.6336 0.02771 25.0135C0.02771 28.5831 2.92146 31.4768 6.49103 31.4768H7.74801C7.18691 33.6243 7.74772 36.0043 9.43061 37.6871C11.9547 40.2112 16.0471 40.2112 18.5712 37.6871L21.2223 35.0359C23.5611 32.6972 24.6534 29.5839 24.4993 26.5218L28.5744 30.5968C31.0985 33.1209 35.1909 33.1209 37.7151 30.5968C40.2393 28.0727 40.2393 23.9803 37.7151 21.4563L36.8266 20.5676C38.7411 19.4458 40.0277 17.3664 40.0277 14.9865C40.0277 11.4169 37.1335 8.52318 33.5643 8.52318H32.3072C32.8684 6.37557 32.3075 3.99559 30.6246 2.31269C28.1006 -0.211402 24.0083 -0.211402 21.4842 2.31269L18.8329 4.96395C16.4941 7.3027 15.4018 10.4159 15.556 13.478L11.481 9.40299C11.4707 9.39286 11.4606 9.38273 11.4504 9.3726V6.46332C11.4504 4.49511 13.0459 2.89956 15.0141 2.89956C16.6128 2.89956 17.9655 3.95217 18.4172 5.4021C18.5511 5.25327 18.6896 5.10716 18.8328 4.96395L20.5952 3.20153C19.4734 1.28627 17.394 0 15.0141 0ZM30.655 11.4227C30.6449 11.4329 30.6348 11.4431 30.6246 11.4532L26.5497 15.5281C29.4244 15.3835 32.3439 16.3373 34.6253 18.3896C36.0755 17.9379 37.1285 16.5851 37.1285 14.9865C37.1285 13.0183 35.5329 11.4227 33.5643 11.4227H30.655ZM9.40012 28.5772C9.41025 28.567 9.42038 28.5568 9.43061 28.5467L13.5055 24.4716C10.6309 24.6164 7.71141 23.6625 5.42981 21.6104C3.97987 22.0621 2.92718 23.4148 2.92718 25.0135C2.92718 26.9817 4.52282 28.5772 6.49103 28.5772H9.40012ZM5.31869 21.5091C5.20808 21.4069 5.09907 21.3021 4.99166 21.1947V21.1948C5.09907 21.3022 5.20808 21.4069 5.31869 21.5091ZM25.0412 40C22.6612 40 20.5818 38.7136 19.46 36.7984L21.2223 35.0359C21.3656 34.8927 21.5041 34.7466 21.638 34.5978C22.0897 36.0477 23.4424 37.1004 25.0412 37.1004C27.0094 37.1004 28.605 35.5049 28.605 33.5367V30.6274C29.4401 31.4516 30.444 32.0024 31.5045 32.2795V33.5367C31.5045 37.1063 28.6108 40 25.0412 40ZM28.5744 4.36294C27.1826 2.97127 24.9262 2.97127 23.5344 4.36294L20.8832 7.01418C17.9178 9.97963 17.6531 14.6231 20.0893 17.888L28.5744 9.40289C29.9661 8.01112 29.9661 5.7547 28.5744 4.36294ZM35.6643 28.5466C37.0563 27.1548 37.0563 24.8984 35.6643 23.5066L33.0133 20.8553C30.048 17.89 25.4044 17.6253 22.1395 20.0615L30.6246 28.5466C32.0164 29.9383 34.2733 29.9383 35.6643 28.5466ZM16.5208 35.6369C15.1291 37.0286 12.8726 37.0286 11.4809 35.6369C10.0892 34.2451 10.0892 31.9887 11.4809 30.5969L19.9659 22.1118C22.4021 25.3767 22.1374 30.0203 19.1721 32.9856L16.5208 35.6369ZM4.39065 11.4532C2.99898 12.845 2.99898 15.1014 4.39065 16.4932L7.0419 19.1445C10.0074 22.1098 14.6508 22.3745 17.9157 19.9383L9.43061 11.4532C8.03885 10.0616 5.78241 10.0616 4.39065 11.4532Z" fill="#3D3A2C"/></g>
                <g id="logotype" transform="translate(43, 20)"><path fill="#111111" d=""/></g>
                
            </svg>
        